<svg xmlns="http://www.w3.org/2000/svg" width="640" height="400" viewBox="0 0 640 400">
  <rect width="640" height="400" fill="#0f172a"/>
  <rect x="0" y="0" width="640" height="44" fill="#0f172a" stroke="#334155"/>
  <rect x="12" y="10" width="26" height="26" rx="6" fill="#0A66C2"/>
  <text x="19" y="27" fill="#fff" font-family="Segoe UI,Arial,sans-serif" font-size="10" font-weight="900">SL</text>
  <text x="46" y="28" fill="#f1f5f9" font-family="Segoe UI,Arial,sans-serif" font-size="13" font-weight="800">SuperLinkedIn</text>
  <rect x="548" y="12" width="22" height="22" rx="4" stroke="#475569" fill="none"/>
  <rect x="586" y="12" width="22" height="22" rx="4" stroke="#475569" fill="none"/>
  <rect x="10" y="50" width="620" height="32" rx="6" fill="#1e293b"/>
  <rect x="14" y="54" width="196" height="24" rx="4" fill="#0f172a"/>
  <text x="68" y="70" fill="#70B5F9" font-family="Segoe UI,Arial,sans-serif" font-size="10" font-weight="700">Overview</text>
  <text x="232" y="70" fill="#94a3b8" font-family="Segoe UI,Arial,sans-serif" font-size="10" font-weight="700">Analytics</text>
  <text x="400" y="70" fill="#94a3b8" font-family="Segoe UI,Arial,sans-serif" font-size="10" font-weight="700">AI Tools</text>
  <text x="24" y="108" fill="#94a3b8" font-family="Segoe UI,Arial,sans-serif" font-size="9" font-weight="800">AI POST WRITER</text>
  <rect x="16" y="116" width="608" height="90" rx="8" fill="#1e293b" stroke="#334155"/>
  <text x="32" y="148" fill="#64748b" font-family="Segoe UI,Arial,sans-serif" font-size="11" font-style="italic">Write or paste your post here...</text>
  <rect x="16" y="214" width="200" height="30" rx="8" fill="#0A66C2"/>
  <text x="48" y="233" fill="#fff" font-family="Segoe UI,Arial,sans-serif" font-size="10" font-weight="700">Generate Post</text>
  <rect x="224" y="214" width="120" height="30" rx="8" fill="#334155"/>
  <text x="260" y="233" fill="#e2e8f0" font-family="Segoe UI,Arial,sans-serif" font-size="10" font-weight="700">Improve</text>
  <rect x="352" y="214" width="36" height="30" rx="8" stroke="#475569" fill="#1e293b"/>
  <text x="24" y="278" fill="#94a3b8" font-family="Segoe UI,Arial,sans-serif" font-size="9" font-weight="800">QUICK IMPROVE</text>
  <rect x="16" y="286" width="196" height="28" rx="6" fill="#1e293b" stroke="#334155"/>
  <rect x="220" y="286" width="196" height="28" rx="6" fill="#1e293b" stroke="#334155"/>
  <rect x="424" y="286" width="200" height="28" rx="6" fill="#1e293b" stroke="#334155"/>
  <text x="70" y="304" fill="#cbd5e1" font-family="Segoe UI,Arial,sans-serif" font-size="9" font-weight="600">Grammar</text>
  <text x="270" y="304" fill="#cbd5e1" font-family="Segoe UI,Arial,sans-serif" font-size="9" font-weight="600">Translate</text>
  <text x="490" y="304" fill="#cbd5e1" font-family="Segoe UI,Arial,sans-serif" font-size="9" font-weight="600">Hook</text>
  <text x="16" y="378" fill="#70B5F9" font-family="Segoe UI,Arial,sans-serif" font-size="10" font-weight="600">Open Dashboard</text>
  <text x="540" y="378" fill="#94a3b8" font-family="Segoe UI,Arial,sans-serif" font-size="10">Disconnect</text>
  <text x="16" y="392" fill="#475569" font-family="Segoe UI,Arial,sans-serif" font-size="8">Chrome extension popup (illustrative)</text>
</svg>
